<svg xmlns="http://www.w3.org/2000/svg" width="100" height="100"><path d="M11.592 31.783v39.561c0 .73.366 1.407.98 1.807l10.543 6.87a2.15 2.15 0 0 0 2.488-.094l1.958-1.23v4.034c0 .732.365 1.407.979 1.807l20.863 13.599a2.157 2.157 0 0 0 2.526-.124l.069-.052 21.082-13.23a2.143 2.143 0 0 0 1.012-1.826v-4.623l1.921 1.206c.412.312.877.47 1.349.47.419 0 .825-.121 1.178-.35l10.541-6.871a2.147 2.147 0 0 0 .979-1.807V37.106c0-.877-.523-1.66-1.334-1.994l-10.557-6.237a2.164 2.164 0 0 0-2.225.016l-1.853 1.136V15.961c0-.329-.078-.66-.223-.957l-.045-.087a2.142 2.142 0 0 0-.807-.881L52.282 1.33a2.154 2.154 0 0 0-2.225-.017L28.972 13.785c-.881.365-1.411 1.138-1.411 2.002v8.917l-1.853-1.135a2.16 2.16 0 0 0-2.225-.018l-10.586 6.26c-.809.374-1.305 1.138-1.305 1.972zm62.5 41.853V35.084l.289-.177 2.672-1.633 1.072.625v-.005l.702.381 6.92 4.092v31.399l-8.958 5.604-2.412-1.508-.285-.226zM51.629 93.098l.216-86.976 17.934 10.987v64.602l-18.15 11.387zM31.874 17.079L49.988 6.366l-.215 86.862-8.261-5.386-5.656-3.687-3.982-2.596v-64.48zM15.905 33.044l7.621-4.507v.015l.979-.597.877.513v-.021l.708.415 1.47.902v43.789l-3.367 2.026-8.289-5.403V33.044z"/><path d="M33.394 54.05c0-.639.52-1.115 1.157-1.058l2.396.216a1.297 1.297 0 0 1 1.157 1.264v5.87c0 .638-.509 1.043-1.131.899l-2.448-.565c-.622-.144-1.131-.783-1.131-1.422V54.05zm0-15.053c0-.639.512-1.26 1.139-1.38l2.431-.468c.628-.12 1.14.304 1.14.942v5.869c0 .638-.521 1.187-1.16 1.22l-2.39.123a1.095 1.095 0 0 1-1.16-1.102v-5.204zm3.652-17.937c.582-.265 1.057.042 1.057.68v5.828c0 .639-.496 1.326-1.102 1.528l-2.508.837c-.606.202-1.102-.155-1.102-.794v-5.256c0-.638.476-1.377 1.057-1.642l2.598-1.181zm8.829 42.1c.625.135 1.135.769 1.135 1.406v7.056c0 .638-.491.983-1.091.765l-3.091-1.122c-.6-.218-1.091-.918-1.091-1.557V63.43c0-.638.512-1.05 1.136-.915l3.002.645zm-.003-27.677c.627-.124 1.139.296 1.139.935v7.056c0 .638-.521 1.188-1.16 1.223l-3.004.158a1.093 1.093 0 0 1-1.16-1.1v-6.279c0-.638.512-1.263 1.139-1.387l3.046-.606zM68.169 54.05c0-.639-.52-1.115-1.156-1.058l-2.396.216a1.297 1.297 0 0 0-1.157 1.264v5.87c0 .638.509 1.043 1.132.899l2.447-.565c.622-.144 1.131-.783 1.131-1.422V54.05zm-9.002-7.999a1.24 1.24 0 0 0-1.159-1.221l-2.391-.125a1.092 1.092 0 0 0-1.159 1.1v7.088c0 .639.52 1.119 1.156 1.066l2.396-.195a1.283 1.283 0 0 0 1.156-1.255v-6.458zm9.045-14.675c0-.639-.5-1.314-1.111-1.501l-2.488-.762c-.61-.187-1.111.183-1.111.821v5.903c0 .639.516 1.25 1.145 1.36l2.422.421c.63.11 1.145-.324 1.145-.962v-5.28zM55.506 16.862c-.581-.264-1.057.042-1.057.681v7.064c0 .638.496 1.326 1.101 1.528l2.511.837c.605.202 1.102-.156 1.102-.793v-6.493c0-.639-.477-1.377-1.057-1.643l-2.6-1.181zm.039 55.577c-.603.213-1.096.908-1.096 1.547v7.055c0 .639.47.932 1.043.651l3.186-1.559c.574-.279 1.043-1.032 1.043-1.671v-6.329c0-.639-.492-.988-1.094-.776l-3.082 1.082z"/></svg>