<?xml version="1.0" encoding="utf-8"?>
<!-- Generated by IcoMoon.io -->
<!DOCTYPE svg PUBLIC "-//W3C//DTD SVG 1.1//EN" "http://www.w3.org/Graphics/SVG/1.1/DTD/svg11.dtd">
<svg version="1.1" xmlns="http://www.w3.org/2000/svg" xmlns:xlink="http://www.w3.org/1999/xlink" width="23" height="32" viewBox="0 0 23 32">
<g>
	<line stroke-width="1" x1="" y1="" x2="" y2="" stroke="#449FDB" opacity=""></line>
</g>
	<path d="M23.273 2.909v20.364q0 0.591-0.432 1.023t-1.023 0.432h-5.818v-9.045h2.909l0.489-3.352h-3.398v-2.636q0-0.727 0.369-1.114t1.085-0.386h2.182v-3.023q-0.977-0.159-2.386-0.159-2.341 0-3.574 1.188t-1.233 3.233v2.898h-2.909v3.352h2.909v9.045h-10.989q-0.591 0-1.023-0.432t-0.432-1.023v-20.364q0-0.591 0.432-1.023t1.023-0.432h20.364q0.591 0 1.023 0.432t0.432 1.023z" fill="#000000"></path>
</svg>
