<?xml version="1.0" encoding="utf-8"?>
<!-- Generated by IcoMoon.io -->
<!DOCTYPE svg PUBLIC "-//W3C//DTD SVG 1.1//EN" "http://www.w3.org/Graphics/SVG/1.1/DTD/svg11.dtd">
<svg version="1.1" xmlns="http://www.w3.org/2000/svg" xmlns:xlink="http://www.w3.org/1999/xlink" width="23" height="32" viewBox="0 0 23 32">
<g>
	<line stroke-width="1" x1="" y1="" x2="" y2="" stroke="#449FDB" opacity=""></line>
</g>
	<path d="M21.58 8.67q1.693 2.148 1.693 4.875 0 2.023-0.517 3.58t-1.477 2.619-2.409 1.744-3.222 0.989-4.011 0.307q-2.807 0-4.903-0.489t-3.631-1.563-2.318-2.864-0.784-4.29q0-2.784 1.693-4.875-0.602-3.239 0.25-5.307 2.75 0.216 5.057 2.045 2.216-0.591 4.636-0.591 2.432 0 4.602 0.591 2.386-1.83 5.091-2.045 0.852 2.068 0.25 5.273zM11.636 21.33q8.568 0 8.568-4.841 0-0.966-0.301-1.727t-0.756-1.199-1.045-0.722-1.102-0.381-1-0.097q-0.545 0-1.636 0.119t-2.727 0.119-2.727-0.119-1.636-0.119q-0.489 0-1 0.097t-1.102 0.381-1.045 0.722-0.756 1.199-0.301 1.727q0 4.841 8.568 4.841zM16.489 16.727q0-2.182-1.216-2.182t-1.216 2.182 1.216 2.182 1.216-2.182zM9.216 16.727q0-2.182-1.216-2.182t-1.216 2.182 1.216 2.182 1.216-2.182z" fill="#000000"></path>
</svg>
