<?xml version="1.0" encoding="utf-8"?>
<!-- Generated by IcoMoon.io -->
<!DOCTYPE svg PUBLIC "-//W3C//DTD SVG 1.1//EN" "http://www.w3.org/Graphics/SVG/1.1/DTD/svg11.dtd">
<svg version="1.1" xmlns="http://www.w3.org/2000/svg" xmlns:xlink="http://www.w3.org/1999/xlink" width="23" height="32" viewBox="0 0 23 32">
<g>
	<line stroke-width="1" x1="" y1="" x2="" y2="" stroke="#449FDB" opacity=""></line>
</g>
	<path d="M23.273 6.784v0.977h-3.875v3.875h-0.977v-3.875h-3.875v-0.977h3.875v-3.875h0.977v3.875h3.875zM10.102 14.705q1.182 0.864 1.653 1.75t0.472 2.216q0 0.841-0.403 1.619t-1.136 1.398-1.892 0.994-2.568 0.375q-1.693 0-3.102-0.426t-2.267-1.256-0.858-1.898q0-1.716 1.756-3.057t4.222-1.341h1.057q-0.807-0.784-0.807-1.67 0-0.625 0.295-1.148-0.193 0.023-0.568 0.023-2.045 0-3.341-1.273t-1.295-3.148q0-1.17 0.75-2.21t1.977-1.648 2.58-0.608h6.091l-1.375 0.989h-1.943q0.932 0.352 1.449 1.324t0.517 2.188q0 1.852-1.716 3.17-0.716 0.58-0.938 0.915t-0.222 0.835q0 0.386 0.54 0.96t1.074 0.926zM6.841 11.659q1.17 0.045 1.858-1.023t0.483-2.614q-0.193-1.545-1.17-2.636t-2.17-1.125q-1.17-0.045-1.858 1t-0.483 2.58q0.205 1.545 1.188 2.665t2.153 1.153zM6.227 22.091q2.318 0 3.364-0.869t1.045-2.313q0-0.193-0.045-0.625-0.068-0.239-0.21-0.472t-0.25-0.381-0.415-0.392-0.426-0.335-0.568-0.403-0.585-0.403q-0.659-0.193-1.511-0.25-1.159 0-2.176 0.426t-1.631 1.165-0.614 1.591q0 1.352 1.142 2.307t2.881 0.955z" fill="#000000"></path>
</svg>
