<?xml version="1.0" encoding="utf-8"?>
<!-- Generated by IcoMoon.io -->
<!DOCTYPE svg PUBLIC "-//W3C//DTD SVG 1.1//EN" "http://www.w3.org/Graphics/SVG/1.1/DTD/svg11.dtd">
<svg version="1.1" xmlns="http://www.w3.org/2000/svg" xmlns:xlink="http://www.w3.org/1999/xlink" width="23" height="32" viewBox="0 0 23 32">
<g>
	<line stroke-width="1" x1="" y1="" x2="" y2="" stroke="#449FDB" opacity=""></line>
</g>
	<path d="M23.273 4.227q0 0.114-0.023 0.193-0.33 2.614-1.233 5.080t-2.267 4.585-3.182 3.943-3.943 3.182-4.585 2.261-5.074 1.233q-0.080 0.023-0.193 0.023-0.136 0-0.182-0.023-0.159-0.068-0.273-0.273l-2.295-5.761q-0.057-0.182 0.017-0.358t0.233-0.267l6.352-3.182q0.284-0.148 0.568 0.091l3.091 3.125q3.864-2.386 6.307-6.341l-3.091-3.091q-0.239-0.284-0.091-0.568l3.182-6.352q0.091-0.159 0.267-0.233t0.358-0.017l5.761 2.295q0.205 0.114 0.239 0.273 0.057 0.080 0.057 0.182z" fill="#000000"></path>
</svg>
