<?xml version="1.0" encoding="utf-8"?>
<!-- Generated by IcoMoon.io -->
<!DOCTYPE svg PUBLIC "-//W3C//DTD SVG 1.1//EN" "http://www.w3.org/Graphics/SVG/1.1/DTD/svg11.dtd">
<svg version="1.1" xmlns="http://www.w3.org/2000/svg" xmlns:xlink="http://www.w3.org/1999/xlink" width="23" height="32" viewBox="0 0 23 32">
<g>
	<line stroke-width="1" x1="" y1="" x2="" y2="" stroke="#449FDB" opacity=""></line>
</g>
	<path d="M23.136 24.591q-0.159 0.136-0.352 0.136-0.182 0-0.307-0.114l-9.523-7.795-4.364 4.375q-0.159 0.136-0.352 0.136-0.125 0-0.25-0.068-0.318-0.205-0.205-0.58l1.261-3.58-7.114-8.307-0.557 0.557q-0.216 0.239-0.568 0.239-0.33 0-0.568-0.239t-0.239-0.574 0.239-0.563l6.523-6.523q0.227-0.239 0.563-0.239t0.574 0.239 0.239 0.574-0.239 0.563l-0.557 0.557 8.307 7.114 3.58-1.261q0.375-0.114 0.58 0.205 0.193 0.318-0.068 0.602l-4.375 4.364 7.795 9.523q0.114 0.148 0.108 0.335t-0.131 0.324z" fill="#000000"></path>
</svg>
