<?xml version="1.0" encoding="utf-8"?>
<!-- Generated by IcoMoon.io -->
<!DOCTYPE svg PUBLIC "-//W3C//DTD SVG 1.1//EN" "http://www.w3.org/Graphics/SVG/1.1/DTD/svg11.dtd">
<svg version="1.1" xmlns="http://www.w3.org/2000/svg" xmlns:xlink="http://www.w3.org/1999/xlink" width="23" height="32" viewBox="0 0 23 32">
<g>
	<line stroke-width="1" x1="" y1="" x2="" y2="" stroke="#449FDB" opacity=""></line>
</g>
	<path d="M23.761 12.364q0 0.67-0.313 1.25t-0.847 0.955q0.182 0.682 0.182 1.432 0 1.261-0.563 2.449t-1.591 2.142-2.403 1.67-3.074 1.108-3.517 0.392-3.517-0.392-3.074-1.108-2.403-1.67-1.591-2.142-0.563-2.449q0-0.75 0.182-1.432-0.534-0.375-0.847-0.955t-0.313-1.25q0-1.114 0.778-1.892t1.892-0.778q1.023 0 1.773 0.682 1.511-0.989 3.455-1.551t4.091-0.585l1.511-4.545q0.068-0.216 0.261-0.33t0.42-0.068l4 0.807q0.273-0.545 0.795-0.869t1.148-0.324q0.909 0 1.545 0.636t0.636 1.545-0.636 1.545-1.545 0.636q-0.864 0-1.489-0.585t-0.682-1.426l-3.489-0.705-1.239 3.727q3.807 0.261 6.58 2.091 0.75-0.682 1.773-0.682 1.114 0 1.892 0.778t0.778 1.892zM6.307 14.307q0 0.693 0.494 1.193t1.199 0.5 1.199-0.5 0.494-1.193q0-0.705-0.494-1.205t-1.199-0.5-1.199 0.5-0.494 1.205zM15.659 19.58q0.17-0.148 0.199-0.364t-0.108-0.398q-0.136-0.17-0.358-0.199t-0.403 0.108q-1.409 1.102-3.352 1.102t-3.352-1.102q-0.182-0.136-0.403-0.108t-0.358 0.199q-0.136 0.182-0.108 0.398t0.199 0.364q1.682 1.318 4.023 1.318t4.023-1.318zM15.273 16q0.705 0 1.199-0.5t0.494-1.193q0-0.705-0.494-1.205t-1.199-0.5-1.199 0.5-0.494 1.205q0 0.693 0.494 1.193t1.199 0.5z" fill="#000000"></path>
</svg>
