<?xml version="1.0" encoding="utf-8"?>
<!-- Generated by IcoMoon.io -->
<!DOCTYPE svg PUBLIC "-//W3C//DTD SVG 1.1//EN" "http://www.w3.org/Graphics/SVG/1.1/DTD/svg11.dtd">
<svg version="1.1" xmlns="http://www.w3.org/2000/svg" xmlns:xlink="http://www.w3.org/1999/xlink" width="23" height="32" viewBox="0 0 23 32">
<g>
	<line stroke-width="1" x1="" y1="" x2="" y2="" stroke="#449FDB" opacity=""></line>
</g>
	<path d="M20.125 8q1.307 0 2.227 0.92t0.92 2.227q0 1.261-0.864 2.17t-2.102 0.977l-3.091 2.216q-0.023 1-0.727 1.699t-1.705 0.699q-0.841 0-1.5-0.528t-0.852-1.324l-8.807-3.795q-0.58 0.318-1.205 0.318-1 0-1.71-0.71t-0.71-1.722 0.705-1.716 1.716-0.705q0.852 0 1.511 0.523t0.852 1.33l8.795 3.795q0.602-0.318 1.205-0.318h0.011l2.17-2.909q0.011-1.307 0.932-2.227t2.227-0.92zM3.943 10.352q0.080-0.057 0.091-0.159t-0.045-0.182q-0.58-0.795-1.568-0.795-0.807 0-1.369 0.563t-0.563 1.369 0.568 1.375 1.364 0.568q0.114 0 0.273-0.023 0.102-0.011 0.165-0.091t0.040-0.182q-0.011-0.091-0.091-0.153t-0.182-0.051q-0.068 0.011-0.205 0.011-0.602 0-1.028-0.426t-0.426-1.028 0.426-1.028 1.028-0.426q0.739 0 1.182 0.602 0.148 0.193 0.341 0.057zM14.784 18.42q0.807 0 1.375-0.563t0.568-1.369-0.568-1.375-1.375-0.568q-0.091 0-0.273 0.023-0.091 0.011-0.153 0.091t-0.051 0.182q0.023 0.091 0.102 0.153t0.17 0.051q0.068-0.011 0.205-0.011 0.602 0 1.028 0.426t0.426 1.028-0.426 1.028-1.028 0.426q-0.727 0-1.17-0.602-0.148-0.193-0.341-0.057-0.182 0.148-0.057 0.341 0.58 0.795 1.568 0.795zM20.125 13.33q0.898 0 1.54-0.642t0.642-1.54-0.642-1.54-1.54-0.642-1.54 0.642-0.642 1.54 0.642 1.54 1.54 0.642zM21.818 11.148q0-0.693-0.5-1.193t-1.193-0.5q-0.705 0-1.205 0.494t-0.5 1.199 0.5 1.205 1.205 0.5 1.199-0.5 0.494-1.205z" fill="#000000"></path>
</svg>
