<?xml version="1.0" encoding="utf-8"?>
<!-- Generated by IcoMoon.io -->
<!DOCTYPE svg PUBLIC "-//W3C//DTD SVG 1.1//EN" "http://www.w3.org/Graphics/SVG/1.1/DTD/svg11.dtd">
<svg version="1.1" xmlns="http://www.w3.org/2000/svg" xmlns:xlink="http://www.w3.org/1999/xlink" width="23" height="32" viewBox="0 0 23 32">
<g>
	<line stroke-width="1" x1="" y1="" x2="" y2="" stroke="#449FDB" opacity=""></line>
</g>
	<path d="M18.909 23.466q-0.080 0.057-0.233 0.136t-0.67 0.301-1.091 0.386-1.483 0.301-1.852 0.136q-3.239 0-4.773-1.443t-1.534-4.375v-7.273h-3.398v-3.398q0.932-0.307 1.631-0.659t1.358-0.892 1.108-1.239 0.773-1.705 0.472-2.29h3.386v5.818h5.341v4.364h-5.341v5.818q0 0.966 0.114 1.563t0.432 1.034 0.886 0.619 1.477 0.182q0.648 0 1.494-0.244t1.381-0.494l0.523-0.239v3.591z" fill="#000000"></path>
</svg>
