<?xml version="1.0" encoding="utf-8"?>
<!-- Generated by IcoMoon.io -->
<!DOCTYPE svg PUBLIC "-//W3C//DTD SVG 1.1//EN" "http://www.w3.org/Graphics/SVG/1.1/DTD/svg11.dtd">
<svg version="1.1" xmlns="http://www.w3.org/2000/svg" xmlns:xlink="http://www.w3.org/1999/xlink" width="23" height="32" viewBox="0 0 23 32">
<g>
	<line stroke-width="1" x1="" y1="" x2="" y2="" stroke="#449FDB" opacity=""></line>
</g>
	<path d="M23.273 5.625q-0.955 1.443-2.375 2.477v0.625q0 1.591-0.403 3.199t-1.159 3.125-1.938 2.835-2.648 2.301-3.381 1.551-4.040 0.568q-4.307 0-7.33-1.943 0.523 0.080 1.136 0.080 1.591 0 3.114-0.614t2.807-1.648q-1.534-0.011-2.767-0.949t-1.676-2.369q0.477 0.091 0.886 0.091 0.659 0 1.273-0.17-1.648-0.33-2.739-1.642t-1.091-3.040v-0.057q1.023 0.557 2.159 0.591-0.989-0.659-1.563-1.705t-0.574-2.25q0-1.17 0.648-2.318 1.795 2.182 4.341 3.46t5.489 1.438q-0.102-0.443-0.102-1.102 0-1.977 1.392-3.369t3.369-1.392q2.034 0 3.511 1.5 1.625-0.33 3.011-1.159-0.545 1.727-2.102 2.648 1.42-0.159 2.75-0.761z" fill="#000000"></path>
</svg>
