<svg xmlns="http://www.w3.org/2000/svg" xmlns:xlink="http://www.w3.org/1999/xlink" version="1.1" id="Calque_1" x="0px" y="0px" width="100px" height="100px" viewBox="0 0 100 100" enable-background="new 0 0 100 100" xml:space="preserve">
<g>
	<path d="M11.592,31.783v39.561c0,0.73,0.366,1.407,0.98,1.807l10.543,6.87c0.351,0.229,0.758,0.352,1.176,0.352   c0.472,0,0.938-0.159,1.312-0.446l1.958-1.23v4.034c0,0.732,0.365,1.407,0.979,1.807l20.863,13.599   c0.35,0.229,0.757,0.349,1.178,0.349c0.488,0,0.968-0.167,1.348-0.473l0.069-0.052L73.08,84.731   c0.634-0.397,1.012-1.08,1.012-1.826v-4.623l1.921,1.206c0.412,0.312,0.877,0.47,1.349,0.47c0.419,0,0.825-0.121,1.178-0.35   l10.541-6.871c0.614-0.399,0.979-1.075,0.979-1.807V37.106c0-0.877-0.523-1.66-1.334-1.994l-10.557-6.237   c-0.332-0.196-0.712-0.301-1.099-0.301c-0.396,0-0.786,0.109-1.126,0.317l-1.853,1.136V15.961c0-0.329-0.078-0.66-0.223-0.957   l-0.045-0.087c-0.18-0.364-0.458-0.668-0.807-0.881L52.282,1.33c-0.339-0.208-0.729-0.318-1.126-0.318   c-0.386,0-0.767,0.104-1.099,0.301L28.972,13.785c-0.881,0.365-1.411,1.138-1.411,2.002v8.917l-1.853-1.135   c-0.341-0.208-0.729-0.318-1.128-0.318c-0.384,0-0.765,0.104-1.097,0.3l-10.586,6.26C12.088,30.185,11.592,30.949,11.592,31.783z    M74.092,73.636V35.084l0.289-0.177l2.672-1.633l1.072,0.625v-0.005l0.702,0.381l6.92,4.092v31.399l-8.958,5.604l-2.412-1.508   L74.092,73.636z M51.629,93.098l0.216-86.976l17.934,10.987v64.602L51.629,93.098z M31.874,17.079L49.988,6.366l-0.215,86.862   l-8.261-5.386l-5.656-3.687l-3.982-2.596V17.079z M15.905,33.044l7.621-4.507v0.015l0.979-0.597l0.877,0.513v-0.021l0.708,0.415   l1.47,0.902v43.789l-3.367,2.026l-8.289-5.403V33.044z"/>
	<path d="M33.394,54.05c0-0.639,0.52-1.115,1.157-1.058l2.396,0.216c0.637,0.057,1.157,0.626,1.157,1.264v5.87   c0,0.638-0.509,1.043-1.131,0.899l-2.448-0.565c-0.622-0.144-1.131-0.783-1.131-1.422V54.05z"/>
	<path d="M33.394,38.997c0-0.639,0.512-1.26,1.139-1.38l2.431-0.468c0.628-0.12,1.14,0.304,1.14,0.942v5.869   c0,0.638-0.521,1.187-1.16,1.22l-2.39,0.123c-0.638,0.033-1.16-0.463-1.16-1.102V38.997z"/>
	<path d="M37.046,21.06c0.582-0.265,1.057,0.042,1.057,0.68v5.828c0,0.639-0.496,1.326-1.102,1.528l-2.508,0.837   c-0.606,0.202-1.102-0.155-1.102-0.794v-5.256c0-0.638,0.476-1.377,1.057-1.642L37.046,21.06z"/>
	<path d="M45.875,63.16c0.625,0.135,1.135,0.769,1.135,1.406v7.056c0,0.638-0.491,0.983-1.091,0.765l-3.091-1.122   c-0.6-0.218-1.091-0.918-1.091-1.557V63.43c0-0.638,0.512-1.05,1.136-0.915L45.875,63.16z"/>
	<path d="M45.872,35.483c0.627-0.124,1.139,0.296,1.139,0.935v7.056c0,0.638-0.521,1.188-1.16,1.223l-3.004,0.158   c-0.639,0.033-1.16-0.462-1.16-1.1v-6.279c0-0.638,0.512-1.263,1.139-1.387L45.872,35.483z"/>
	<path d="M68.169,54.05c0-0.639-0.52-1.115-1.156-1.058l-2.396,0.216c-0.637,0.057-1.157,0.626-1.157,1.264v5.87   c0,0.638,0.509,1.043,1.132,0.899l2.447-0.565c0.622-0.144,1.131-0.783,1.131-1.422V54.05z"/>
	<path d="M59.167,46.051c0-0.638-0.521-1.188-1.159-1.221l-2.391-0.125c-0.638-0.034-1.159,0.461-1.159,1.1v7.088   c0,0.639,0.52,1.119,1.156,1.066l2.396-0.195c0.637-0.052,1.156-0.616,1.156-1.255V46.051z"/>
	<path d="M68.212,31.376c0-0.639-0.5-1.314-1.111-1.501l-2.488-0.762c-0.61-0.187-1.111,0.183-1.111,0.821v5.903   c0,0.639,0.516,1.25,1.145,1.36l2.422,0.421c0.63,0.11,1.145-0.324,1.145-0.962V31.376z"/>
	<path d="M55.506,16.862c-0.581-0.264-1.057,0.042-1.057,0.681v7.064c0,0.638,0.496,1.326,1.101,1.528l2.511,0.837   c0.605,0.202,1.102-0.156,1.102-0.793v-6.493c0-0.639-0.477-1.377-1.057-1.643L55.506,16.862z"/>
	<path d="M55.545,72.439c-0.603,0.213-1.096,0.908-1.096,1.547v7.055c0,0.639,0.47,0.932,1.043,0.651l3.186-1.559   c0.574-0.279,1.043-1.032,1.043-1.671v-6.329c0-0.639-0.492-0.988-1.094-0.776L55.545,72.439z"/>
</g>
</svg>