<svg xmlns="http://www.w3.org/2000/svg" width="23" height="32"><path d="M21.58 8.67q1.693 2.148 1.693 4.875 0 2.023-.517 3.58t-1.477 2.619-2.409 1.744-3.222.989-4.011.307q-2.807 0-4.903-.489t-3.631-1.563-2.318-2.864-.784-4.29q0-2.784 1.693-4.875-.602-3.239.25-5.307 2.75.216 5.057 2.045 2.216-.591 4.636-.591 2.432 0 4.602.591 2.386-1.83 5.091-2.045.852 2.068.25 5.273zm-9.944 12.66q8.568 0 8.568-4.841 0-.966-.301-1.727t-.756-1.199-1.045-.722T17 12.46t-1-.097q-.545 0-1.636.119t-2.727.119-2.727-.119-1.636-.119q-.489 0-1 .097t-1.102.381-1.045.722-.756 1.199-.301 1.727q0 4.841 8.568 4.841zm4.853-4.603q0-2.182-1.216-2.182t-1.216 2.182 1.216 2.182 1.216-2.182zm-7.273 0q0-2.182-1.216-2.182t-1.216 2.182T8 18.909t1.216-2.182z"/></svg>