<svg xmlns="http://www.w3.org/2000/svg" width="23" height="32" viewBox="0 0 23 32"><path stroke="#449FDB" d="M0 0"/><path d="M21.58 8.67q1.693 2.148 1.693 4.875 0 2.023-.517 3.58t-1.477 2.62-2.41 1.743-3.222.99-4.01.306q-2.808 0-4.904-.49t-3.63-1.562-2.32-2.864-.783-4.29q0-2.784 1.694-4.875-.602-3.24.25-5.307Q4.694 3.612 7 5.44q2.217-.59 4.637-.59 2.432 0 4.602.59 2.385-1.83 5.09-2.044.852 2.068.25 5.273zm-9.944 12.66q8.568 0 8.568-4.84 0-.967-.3-1.728t-.757-1.2-1.045-.72T17 12.46t-1-.097q-.545 0-1.636.12t-2.727.118-2.727-.118-1.636-.12q-.49 0-1 .098t-1.102.38-1.045.723-.756 1.2-.3 1.726q0 4.84 8.568 4.84zm4.853-4.603q0-2.182-1.217-2.182t-1.216 2.182 1.216 2.182 1.216-2.183zm-7.274 0q0-2.182-1.216-2.182t-1.216 2.182T8 18.91t1.216-2.183z"/></svg>