<svg xmlns="http://www.w3.org/2000/svg" width="23" height="32" viewBox="0 0 23 32"><path stroke="#449FDB" d="M0 0"/><path d="M23.273 6.784v.977h-3.875v3.876h-.977V7.76h-3.874v-.976h3.875V2.91h.978v3.874h3.875zm-13.17 7.92q1.18.865 1.652 1.75t.472 2.217q0 .842-.403 1.62t-1.136 1.398-1.892.994-2.568.375q-1.693 0-3.102-.426T.86 21.376 0 19.477q0-1.716 1.757-3.057t4.222-1.34h1.056q-.807-.785-.807-1.67 0-.626.294-1.15-.193.024-.568.024-2.045 0-3.34-1.273T1.32 7.864q0-1.17.75-2.21t1.977-1.648 2.58-.608h6.09l-1.374.99H9.4q.932.35 1.45 1.323t.516 2.188q0 1.852-1.716 3.17-.716.58-.938.915t-.222.835q0 .386.54.96t1.074.926zM6.84 11.66q1.17.044 1.86-1.024t.482-2.614q-.193-1.545-1.17-2.636T5.842 4.26q-1.17-.044-1.858 1T3.5 7.84q.206 1.546 1.19 2.666T6.84 11.66zm-.613 10.43q2.318 0 3.364-.868t1.046-2.313q0-.194-.045-.626-.067-.24-.21-.472t-.25-.38-.414-.393-.426-.336-.568-.403-.585-.402q-.66-.193-1.51-.25-1.16 0-2.177.426T2.82 17.24t-.615 1.59q0 1.352 1.142 2.307t2.88.955z"/></svg>