<svg xmlns="http://www.w3.org/2000/svg" width="23" height="32"><path d="M23.273 6.784v.977h-3.875v3.875h-.977V7.761h-3.875v-.977h3.875V2.909h.977v3.875h3.875zm-13.171 7.921q1.182.864 1.653 1.75t.472 2.216q0 .841-.403 1.619t-1.136 1.398-1.892.994-2.568.375q-1.693 0-3.102-.426T.859 21.375t-.858-1.898q0-1.716 1.756-3.057t4.222-1.341h1.057q-.807-.784-.807-1.67 0-.625.295-1.148-.193.023-.568.023-2.045 0-3.341-1.273T1.32 7.863q0-1.17.75-2.21t1.977-1.648 2.58-.608h6.091l-1.375.989H9.4q.932.352 1.449 1.324t.517 2.188q0 1.852-1.716 3.17-.716.58-.938.915t-.222.835q0 .386.54.96t1.074.926zm-3.261-3.046q1.17.045 1.858-1.023t.483-2.614q-.193-1.545-1.17-2.636t-2.17-1.125q-1.17-.045-1.858 1t-.483 2.58q.205 1.545 1.188 2.665t2.153 1.153zm-.614 10.432q2.318 0 3.364-.869t1.045-2.313q0-.193-.045-.625-.068-.239-.21-.472t-.25-.381-.415-.392-.426-.335-.568-.403-.585-.403q-.659-.193-1.511-.25-1.159 0-2.176.426t-1.631 1.165-.614 1.591q0 1.352 1.142 2.307t2.881.955z"/></svg>