<svg xmlns="http://www.w3.org/2000/svg" width="23" height="32" viewBox="0 0 23 32"><path stroke="#449FDB" d="M0 0"/><path d="M23.273 4.227q0 .114-.023.193-.33 2.614-1.233 5.08t-2.267 4.585-3.182 3.943-3.943 3.182-4.585 2.26-5.074 1.234q-.08.023-.193.023-.136 0-.182-.023-.158-.068-.272-.273L.023 18.67q-.057-.182.017-.358t.233-.267l6.352-3.182q.284-.148.568.09l3.09 3.126q3.865-2.387 6.308-6.342l-3.09-3.09q-.24-.285-.09-.57l3.18-6.35q.092-.16.268-.234t.358-.017l5.76 2.295q.206.114.24.273.057.08.057.182z"/></svg>