<svg xmlns="http://www.w3.org/2000/svg" width="23" height="32" viewBox="0 0 23 32"><path stroke="#449FDB" d="M0 0"/><path d="M23.136 24.59q-.16.137-.352.137-.182 0-.307-.114l-9.523-7.795-4.364 4.375q-.16.136-.352.136-.125 0-.25-.07-.318-.204-.205-.58l1.26-3.58L1.93 8.795l-.557.557q-.216.24-.568.24-.33 0-.568-.24t-.24-.573.24-.563L6.76 1.69q.227-.238.563-.238t.574.24.24.573-.24.563l-.557.557 8.307 7.114 3.58-1.262q.375-.114.58.205.193.318-.068.602l-4.376 4.364 7.795 9.522q.113.148.107.335t-.13.324z"/></svg>