<svg xmlns="http://www.w3.org/2000/svg" width="23" height="32" viewBox="0 0 23 32"><path stroke="#449FDB" d="M0 0"/><path d="M23.76 12.364q0 .67-.312 1.25t-.847.955q.183.68.183 1.43 0 1.262-.563 2.45t-1.59 2.142-2.404 1.67-3.074 1.108-3.517.392-3.517-.392-3.074-1.108-2.403-1.67-1.59-2.142T.487 16q0-.75.182-1.43-.535-.376-.848-.956t-.313-1.25q0-1.114.777-1.892t1.892-.778q1.022 0 1.772.682 1.51-.99 3.455-1.55t4.09-.586l1.512-4.545q.067-.216.26-.33t.42-.068l4 .807q.273-.545.795-.87t1.148-.323q.91 0 1.545.637t.636 1.545-.636 1.545-1.545.636q-.864 0-1.49-.585t-.68-1.426l-3.49-.705-1.24 3.727q3.808.26 6.58 2.09.75-.68 1.774-.68 1.114 0 1.892.777t.777 1.893zM6.308 14.307q0 .693.494 1.193T8 16t1.2-.5.493-1.193q0-.705-.494-1.205t-1.2-.5-1.2.5-.493 1.205zm9.352 5.273q.17-.148.198-.364t-.108-.398q-.136-.17-.358-.2t-.403.11q-1.41 1.1-3.353 1.1t-3.352-1.1q-.182-.137-.403-.11t-.358.2q-.136.182-.108.398t.2.364q1.68 1.318 4.022 1.318t4.023-1.318zM15.272 16q.705 0 1.2-.5t.493-1.193q0-.705-.494-1.205t-1.2-.5-1.198.5-.494 1.205q0 .693.494 1.193t1.2.5z"/></svg>