<svg xmlns="http://www.w3.org/2000/svg" width="23" height="32"><path d="M23.761 12.364q0 .67-.313 1.25t-.847.955q.182.682.182 1.432 0 1.261-.563 2.449t-1.591 2.142-2.403 1.67-3.074 1.108-3.517.392-3.517-.392-3.074-1.108-2.403-1.67T1.05 18.45t-.563-2.449q0-.75.182-1.432-.534-.375-.847-.955t-.313-1.25q0-1.114.778-1.892t1.892-.778q1.023 0 1.773.682 1.511-.989 3.455-1.551t4.091-.585l1.511-4.545q.068-.216.261-.33t.42-.068l4 .807q.273-.545.795-.869t1.148-.324q.909 0 1.545.636t.636 1.545-.636 1.545-1.545.636q-.864 0-1.489-.585t-.682-1.426l-3.489-.705-1.239 3.727q3.807.261 6.58 2.091.75-.682 1.773-.682 1.114 0 1.892.778t.778 1.892zM6.307 14.307q0 .693.494 1.193T8 16t1.199-.5.494-1.193q0-.705-.494-1.205T8 12.602t-1.199.5-.494 1.205zm9.352 5.273q.17-.148.199-.364t-.108-.398q-.136-.17-.358-.199t-.403.108q-1.409 1.102-3.352 1.102t-3.352-1.102q-.182-.136-.403-.108t-.358.199q-.136.182-.108.398t.199.364q1.682 1.318 4.023 1.318t4.023-1.318zM15.273 16q.705 0 1.199-.5t.494-1.193q0-.705-.494-1.205t-1.199-.5-1.199.5-.494 1.205q0 .693.494 1.193t1.199.5z"/></svg>