<svg xmlns="http://www.w3.org/2000/svg" width="23" height="32"><path d="M20.125 8q1.307 0 2.227.92t.92 2.227q0 1.261-.864 2.17t-2.102.977l-3.091 2.216q-.023 1-.727 1.699t-1.705.699q-.841 0-1.5-.528t-.852-1.324l-8.807-3.795q-.58.318-1.205.318-1 0-1.71-.71t-.71-1.722.705-1.716 1.716-.705q.852 0 1.511.523t.852 1.33l8.795 3.795q.602-.318 1.205-.318h.011l2.17-2.909q.011-1.307.932-2.227T20.123 8zM3.943 10.352q.08-.057.091-.159t-.045-.182q-.58-.795-1.568-.795-.807 0-1.369.563t-.563 1.369.568 1.375 1.364.568q.114 0 .273-.023.102-.011.165-.091t.04-.182q-.011-.091-.091-.153t-.182-.051q-.068.011-.205.011-.602 0-1.028-.426t-.426-1.028.426-1.028 1.028-.426q.739 0 1.182.602.148.193.341.057zm10.841 8.068q.807 0 1.375-.563t.568-1.369-.568-1.375-1.375-.568q-.091 0-.273.023-.091.011-.153.091t-.051.182q.023.091.102.153t.17.051q.068-.011.205-.011.602 0 1.028.426t.426 1.028-.426 1.028-1.028.426q-.727 0-1.17-.602-.148-.193-.341-.057-.182.148-.057.341.58.795 1.568.795zm5.341-5.09q.898 0 1.54-.642t.642-1.54-.642-1.54-1.54-.642-1.54.642-.642 1.54.642 1.54 1.54.642zm1.693-2.182q0-.693-.5-1.193t-1.193-.5q-.705 0-1.205.494t-.5 1.199.5 1.205 1.205.5 1.199-.5.494-1.205z"/></svg>