<svg xmlns="http://www.w3.org/2000/svg" width="23" height="32" viewBox="0 0 23 32"><path stroke="#449FDB" d="M0 0"/><path d="M20.125 8q1.307 0 2.227.92t.92 2.227q0 1.26-.864 2.17t-2.102.977l-3.09 2.216q-.024 1-.728 1.7t-1.705.698q-.84 0-1.5-.528t-.852-1.324L3.625 13.26q-.58.32-1.205.32-1 0-1.71-.71T0 11.146.703 9.43t1.716-.704q.852 0 1.51.523t.853 1.33l8.795 3.794q.602-.318 1.205-.318h.01l2.17-2.91q.012-1.306.933-2.226T20.123 8zM3.943 10.352q.08-.057.09-.16t-.044-.18q-.58-.796-1.57-.796-.806 0-1.368.563T.49 11.147t.567 1.375 1.364.568q.115 0 .274-.022.102-.01.165-.09t.04-.183q-.012-.09-.092-.153t-.182-.05q-.068.01-.205.01-.6 0-1.027-.426t-.426-1.028.426-1.028 1.028-.426q.74 0 1.183.602.148.193.34.057zm10.84 8.068q.808 0 1.376-.563t.567-1.37-.568-1.374-1.376-.568q-.09 0-.273.023-.09.01-.152.09t-.05.183q.022.092.1.154t.17.05q.07-.01.206-.01.602 0 1.028.426t.426 1.028-.426 1.028-1.028.426q-.727 0-1.17-.602-.148-.193-.34-.057-.183.148-.058.34.58.796 1.568.796zm5.342-5.09q.898 0 1.54-.642t.642-1.54-.642-1.54-1.54-.642-1.54.642-.642 1.54.642 1.54 1.54.642zm1.693-2.182q0-.693-.5-1.193t-1.193-.5q-.705 0-1.205.494t-.5 1.198.5 1.205 1.205.5 1.2-.5.493-1.205z"/></svg>