<svg xmlns="http://www.w3.org/2000/svg" width="23" height="32"><path d="M23.273 5.625q-.955 1.443-2.375 2.477v.625q0 1.591-.403 3.199t-1.159 3.125-1.938 2.835-2.648 2.301-3.381 1.551-4.04.568q-4.307 0-7.33-1.943.523.08 1.136.08 1.591 0 3.114-.614t2.807-1.648q-1.534-.011-2.767-.949t-1.676-2.369q.477.091.886.091.659 0 1.273-.17-1.648-.33-2.739-1.642t-1.091-3.04v-.057q1.023.557 2.159.591-.989-.659-1.563-1.705t-.574-2.25q0-1.17.648-2.318 1.795 2.182 4.341 3.46t5.489 1.438q-.102-.443-.102-1.102 0-1.977 1.392-3.369t3.369-1.392q2.034 0 3.511 1.5 1.625-.33 3.011-1.159-.545 1.727-2.102 2.648 1.42-.159 2.75-.761z"/></svg>