<svg xmlns="http://www.w3.org/2000/svg" width="23" height="32" viewBox="0 0 23 32"><path stroke="#449FDB" d="M0 0"/><path d="M23.273 5.625q-.955 1.443-2.375 2.477v.625q0 1.59-.403 3.2t-1.16 3.124-1.937 2.836-2.648 2.3-3.38 1.552-4.04.568q-4.308 0-7.33-1.943.522.08 1.135.08 1.59 0 3.114-.614t2.806-1.65q-1.534-.01-2.767-.948t-1.677-2.37q.477.092.886.092.658 0 1.272-.17-1.648-.33-2.74-1.642t-1.09-3.04v-.057q1.023.557 2.16.59-.99-.658-1.564-1.704T.964 6.68q0-1.17.648-2.317 1.795 2.182 4.34 3.46t5.49 1.438q-.102-.442-.102-1.1 0-1.978 1.392-3.37t3.37-1.392q2.033 0 3.51 1.5 1.625-.33 3.01-1.16-.544 1.728-2.1 2.65 1.42-.16 2.75-.762z"/></svg>